<svg width="17" height="13" viewBox="0 0 17 13" fill="none" xmlns="http://www.w3.org/2000/svg">
<path d="M15.723 12.027C14.8874 12.1419 14.384 11.4709 13.7927 11.0659C13.3502 10.7627 12.7587 10.5864 12.1607 10.4581C8.97302 9.77452 5.21683 10.3828 2.66629 11.9956C2.2677 12.2476 1.80129 12.5448 1.28625 12.4799C0.742142 12.4114 0.486508 11.9383 0.642986 11.5611C0.799465 11.1838 1.24007 10.8937 1.68184 10.6445C4.86873 8.84695 9.30747 8.12544 13.0753 8.99595C14.1498 9.24421 15.1797 9.62344 15.9313 10.2058C16.2806 10.4764 16.5745 10.8079 16.587 11.179C16.5994 11.55 16.2494 11.9546 15.723 12.027Z" fill="black"/>
<path d="M1.90038 4.37927C1.84059 3.7574 1.78081 3.13553 1.72102 2.51367C1.69075 2.19886 1.66275 1.87251 1.82349 1.57213C1.98424 1.27176 2.38952 1.00407 2.84197 1.0159C3.61026 1.03597 3.845 1.72703 3.87337 2.26308C3.88957 2.56922 3.90577 2.87536 3.92197 3.1815C3.93875 3.49853 3.95414 3.82311 3.81558 4.12969C3.67701 4.43627 3.35155 4.72651 2.90724 4.80979C2.46294 4.89307 1.93078 4.69543 1.90038 4.37927Z" fill="black"/>
<path d="M11.6996 0.25269C12.1284 0.145508 12.6015 0.324605 12.8385 0.584601C13.0755 0.844597 13.132 1.16623 13.1829 1.47649C13.272 2.02019 13.3612 2.56388 13.4504 3.10758C13.4979 3.39724 13.5444 3.69632 13.4249 3.98046C13.3054 4.2646 12.9755 4.53264 12.5566 4.56699C12.1535 4.60004 11.7809 4.40762 11.5913 4.164C11.4018 3.92038 11.3575 3.63316 11.3165 3.3539C11.2274 2.74572 11.1383 2.13753 11.0492 1.52934C10.9788 1.04905 11.037 0.418318 11.6996 0.25269Z" fill="black"/>
</svg>
