<svg width="50" height="50" viewBox="0 0 50 50" fill="none" xmlns="http://www.w3.org/2000/svg">
<circle cx="25" cy="25" r="25" fill="#69CC27"/>
<path d="M15.8096 25.2975C15.3446 24.7758 14.6618 24.5054 14.0121 24.2346C13.3624 23.9639 12.6886 23.6502 12.2854 23.081C11.8822 22.5118 11.8773 21.6121 12.4575 21.2174C13.0274 20.8297 13.8018 21.095 14.4359 21.37C15.7177 21.9259 16.9994 22.4819 18.2812 23.0378C19.0322 23.3635 19.9086 23.8753 19.8736 24.6813C19.8519 25.1818 19.4678 25.5853 19.107 25.9391C17.8378 27.184 16.5686 28.4288 15.2994 29.6736C14.5759 30.3832 13.4577 31.1331 12.6416 30.5284C11.8293 29.9264 12.256 28.6459 12.8722 27.8503C13.6691 26.8217 14.6733 25.9489 15.8096 25.2975Z" fill="black"/>
<path d="M29.8732 22.7051C31.1826 21.7528 32.4919 20.8005 33.8012 19.8483C34.2627 19.5126 34.7418 19.1688 35.3015 19.0426C35.8611 18.9165 36.5275 19.0665 36.8331 19.5442C37.1114 19.9793 37.0158 20.5679 36.7365 21.0023C36.4571 21.4368 36.0252 21.751 35.6034 22.0547C34.9657 22.5139 34.3279 22.9731 33.6901 23.4324C33.451 23.6045 33.2022 23.7881 33.0783 24.0528C32.9545 24.3175 33.0085 24.6869 33.2715 24.8212C34.0908 25.2396 34.9611 25.7072 35.3764 26.5177C35.7917 27.3281 35.4491 28.5595 34.5379 28.7061C33.9779 28.7962 33.4474 28.4631 32.981 28.1455C31.8321 27.3632 30.6833 26.5809 29.5344 25.7985C29.1667 25.5481 28.7773 25.2706 28.6301 24.8553C28.3334 24.0185 29.1484 23.2323 29.8732 22.7051Z" fill="black"/>
<path d="M16.5744 37.3788C16.5571 36.4261 16.7004 35.3602 17.4528 34.7592C17.9308 34.3774 18.5663 34.2595 19.1729 34.1541C22.2522 33.6193 25.3316 33.0844 28.411 32.5496C28.9298 32.4595 29.4743 32.3709 29.9744 32.534C30.9925 32.8662 31.3965 34.0678 31.4849 35.1185C31.752 38.2925 30.3559 41.5583 27.8624 43.5925C26.2774 44.8856 24.1727 45.6969 22.1463 45.333C20.4 45.0193 18.8808 43.8521 17.942 42.3714C17.0032 40.8907 16.6061 39.1231 16.5744 37.3788ZM19.7018 37.5886C19.8224 38.5065 19.9517 39.4376 20.3274 40.2864C20.703 41.1351 21.363 41.9054 22.2522 42.2103C23.453 42.622 24.7986 42.106 25.794 41.3279C27.3235 40.1323 28.3154 38.295 28.4653 36.3799C28.4799 36.1926 28.4801 35.9843 28.3543 35.8428C28.1876 35.6554 27.8903 35.6764 27.6398 35.7131C25.264 36.0609 22.8881 36.4086 20.5122 36.7564C20.1934 36.803 19.8159 36.8952 19.7116 37.195C19.6679 37.3203 19.6846 37.4572 19.7018 37.5886Z" fill="black"/>
</svg>
