<svg width="16" height="12" viewBox="0 0 16 12" fill="none" xmlns="http://www.w3.org/2000/svg">
<path d="M2.51471 11.4988C1.82752 11.2916 1.15985 11.0203 0.63067 10.6219C0.265171 10.3467 -0.0414586 9.97756 0.00459573 9.58397C0.0506501 9.19038 0.594233 8.83155 1.0649 8.9824C1.44388 9.10386 1.58197 9.4567 1.83738 9.70564C2.11049 9.97182 2.52771 10.1215 2.93966 10.2379C5.69823 11.0176 8.94891 10.6466 11.3015 9.28353C12.2381 8.74088 13.0926 7.91966 12.9266 7.02173C12.873 6.73194 13.3452 6.52171 13.71 6.59629C14.0748 6.67086 14.3315 6.91696 14.5616 7.14891C14.8581 7.44773 15.1546 7.74655 15.4511 8.04537C15.6998 8.29602 15.9582 8.56503 15.9966 8.88C16.0349 9.19496 15.7487 9.55511 15.3412 9.54835C14.7982 9.53934 14.2228 8.95252 13.8707 9.27338C11.1706 11.7337 6.3961 12.6694 2.51471 11.4988Z" fill="black"/>
<path d="M3.99946 1.28658C4.12879 2.16467 4.19799 3.0481 4.20667 3.93188C4.20811 4.07793 4.20709 4.22764 4.1416 4.36457C3.93688 4.79256 3.04247 4.86774 2.72444 4.48368C2.57507 4.30329 2.5566 4.07813 2.54251 3.86398C2.48934 3.05632 2.43618 2.24866 2.38302 1.44099C2.36749 1.2051 2.35325 0.961945 2.45573 0.739536C2.55822 0.517127 2.80806 0.318253 3.11211 0.307906C3.68023 0.288573 3.93487 0.848083 3.99946 1.28658Z" fill="black"/>
<path d="M10.6649 4.57069C10.314 4.62384 9.96339 4.4293 9.79866 4.18298C9.63392 3.93666 9.61258 3.64969 9.59453 3.37251C9.55305 2.73576 9.51157 2.09901 9.47009 1.46225C9.45143 1.17578 9.43379 0.882433 9.5421 0.608191C9.65041 0.333949 9.91181 0.078006 10.2717 0.012742C10.6316 -0.052522 11.0643 0.1401 11.0867 0.426409C11.1643 1.41836 11.2418 2.41032 11.3194 3.40227C11.3558 3.86759 11.2545 4.48141 10.6649 4.57069Z" fill="black"/>
</svg>
