<svg width="50" height="50" viewBox="0 0 50 50" fill="none" xmlns="http://www.w3.org/2000/svg">
<circle cx="25" cy="25" r="25" fill="#272727"/>
<path d="M13.4445 40.0199C13.2692 39.3658 13.7941 38.7603 14.2747 38.3537C15.5341 37.2882 16.8699 36.3411 18.2642 35.5251C18.8151 35.2027 19.3911 34.8957 20.0079 34.8403C20.6837 34.7796 21.3492 35.0259 21.9886 35.2837C24.2546 36.1972 26.4632 37.2969 28.5921 38.5716C29.1539 38.908 29.785 39.39 29.794 40.116C29.8031 40.8519 29.1064 41.387 28.4637 41.3811C27.821 41.3753 27.2339 40.9922 26.6715 40.636C25.1658 39.6824 23.6036 38.8458 21.9992 38.1341C21.0172 37.6984 19.8604 37.3241 18.9581 37.946C17.897 38.6772 16.8359 39.4084 15.7748 40.1397C15.388 40.4062 14.9837 40.6796 14.534 40.725C14.0843 40.7705 13.577 40.5141 13.4445 40.0199Z" fill="#E9E7E7"/>
<path d="M25.4206 27.0661C25.042 26.4108 25.4907 25.5596 25.9227 24.9493C26.877 23.6013 27.8312 22.2533 28.7854 20.9053C29.0361 20.5512 29.3094 20.1791 29.6898 20.0447C30.2422 19.8495 30.8978 20.3182 30.9873 20.9722C31.0735 21.6025 30.7067 22.1846 30.3603 22.6843C29.5468 23.8582 28.7333 25.0321 27.9197 26.206C27.6019 26.6646 27.2665 27.1394 26.8014 27.3826C26.3364 27.6258 25.7027 27.5543 25.4206 27.0661Z" fill="#E9E7E7"/>
<path d="M11.9506 22.1331C12.3642 22.1345 12.7242 22.4387 13.051 22.729C13.9967 23.5694 14.9424 24.4097 15.8881 25.2501C16.2161 25.5415 16.5525 25.8438 16.7588 26.2564C16.9651 26.669 17.0114 27.2241 16.7593 27.6018C16.5048 27.9833 16.0183 28.0753 15.6138 27.9493C15.2093 27.8232 14.8666 27.5219 14.5355 27.2275C13.7286 26.5097 12.9216 25.792 12.1146 25.0742C11.4892 24.5179 10.79 23.6995 11.0594 22.8467C11.1908 22.4308 11.5643 22.1317 11.9506 22.1331Z" fill="#E9E7E7"/>
</svg>
