<svg width="13" height="12" viewBox="0 0 13 12" fill="none" xmlns="http://www.w3.org/2000/svg">
<path d="M2.58824 4.59957C2.09155 4.84042 1.32109 4.65213 0.980547 4.31871C0.640004 3.98529 0.611009 3.56485 0.592648 3.16712C0.572447 2.72952 0.552247 2.29192 0.532046 1.85431C0.513372 1.4498 0.504851 1.01939 0.835099 0.673815C1.16535 0.32824 1.97006 0.13698 2.45268 0.399762C2.79678 0.587118 2.84088 0.910214 2.85973 1.19849C2.91278 2.00964 2.96583 2.82079 3.01888 3.63193C3.04172 3.98109 3.02446 4.38805 2.58824 4.59957Z" fill="black"/>
<path d="M12.624 11.8844C12.322 12.0128 11.9311 12.0058 11.5685 11.9942C8.12042 11.8833 4.6723 11.7724 1.22418 11.6615C1.00967 11.6546 0.79088 11.6472 0.590593 11.5977C-0.0965649 11.428 -0.215396 10.7181 0.400102 10.4597C0.667016 10.3476 0.998532 10.3228 1.31676 10.3042C4.36746 10.1259 7.43947 10.2466 10.4971 10.3675C11.2041 10.3954 11.9621 10.4355 12.5108 10.7213C13.0594 11.007 13.2134 11.6338 12.624 11.8844Z" fill="black"/>
<path d="M9.60436 3.56804C9.60666 2.56179 9.70189 1.55564 9.88941 0.556525C9.98798 0.0313613 11.2478 -0.200683 11.7703 0.210086C12.0886 0.460373 12.088 0.813324 12.072 1.13543C12.0348 1.88246 11.9977 2.62948 11.9606 3.3765C11.9447 3.69503 11.9241 4.02574 11.6948 4.3089C11.4655 4.59205 10.9626 4.81214 10.4773 4.73608C9.7663 4.62465 9.60329 4.03492 9.60436 3.56804Z" fill="black"/>
</svg>
