<svg width="16" height="12" viewBox="0 0 16 12" fill="none" xmlns="http://www.w3.org/2000/svg">
<path d="M2.43813 2.86029C2.14055 2.62333 1.70354 2.50053 1.28774 2.37755C0.871937 2.25458 0.440726 2.1121 0.182665 1.85358C-0.0753957 1.59506 -0.0785256 1.18642 0.292823 1.00713C0.657523 0.831049 1.15316 0.951533 1.55895 1.07644C2.3793 1.32894 3.19965 1.58145 4.01999 1.83396C4.50063 1.9819 5.06151 2.21433 5.03913 2.58042C5.02523 2.80774 4.77941 2.99101 4.54849 3.15174C3.73619 3.71713 2.92389 4.28253 2.11159 4.84792C1.64856 5.17021 0.932918 5.51082 0.410611 5.23614C-0.109277 4.96273 0.163829 4.38113 0.558235 4.0198C1.0682 3.55259 1.71093 3.15617 2.43813 2.86029Z" fill="black"/>
<path d="M11.4389 1.68284C12.2768 1.25032 13.1148 0.817801 13.9527 0.385282C14.2481 0.232811 14.5547 0.0766474 14.9129 0.0193568C15.2711 -0.0379338 15.6976 0.0301936 15.8932 0.247191C16.0713 0.44481 16.0101 0.712139 15.8313 0.909461C15.6526 1.10678 15.3761 1.24948 15.1062 1.38743C14.698 1.59601 14.2898 1.80458 13.8817 2.01316C13.7286 2.09136 13.5694 2.17476 13.4901 2.29498C13.4109 2.41521 13.4454 2.58295 13.6138 2.64397C14.1381 2.83401 14.6951 3.0464 14.9609 3.41451C15.2267 3.78261 15.0074 4.34187 14.4242 4.40846C14.0658 4.44938 13.7263 4.29812 13.4278 4.15386C12.6926 3.79854 11.9573 3.44321 11.222 3.08788C10.9867 2.97414 10.7374 2.84806 10.6432 2.65947C10.4534 2.27938 10.975 1.92227 11.4389 1.68284Z" fill="black"/>
<path d="M2.92763 8.34758C2.91656 7.91487 3.00828 7.43075 3.48979 7.15778C3.79572 6.98435 4.2024 6.9308 4.59062 6.88295C6.56142 6.64002 8.53222 6.3971 10.503 6.15417C10.8351 6.11324 11.1835 6.07301 11.5036 6.14711C12.1552 6.29798 12.4138 6.84373 12.4703 7.32097C12.6413 8.76259 11.7478 10.2459 10.1519 11.1698C9.13751 11.7571 7.79053 12.1257 6.49362 11.9603C5.376 11.8179 4.40372 11.2877 3.80288 10.6152C3.20204 9.94268 2.94789 9.13986 2.92763 8.34758ZM4.92917 8.44286C5.00633 8.8598 5.08907 9.2827 5.3295 9.6682C5.56994 10.0537 5.9923 10.4036 6.56141 10.542C7.32992 10.7291 8.19112 10.4947 8.82812 10.1413C9.80704 9.59821 10.4419 8.76373 10.5378 7.8939C10.5472 7.80883 10.5472 7.71419 10.4667 7.64995C10.3601 7.56484 10.1698 7.57439 10.0095 7.59104C8.48893 7.74899 6.96837 7.90694 5.44781 8.06489C5.24376 8.08608 5.00216 8.12795 4.93539 8.2641C4.90747 8.32102 4.91813 8.38319 4.92917 8.44286Z" fill="black"/>
</svg>
