<svg width="50" height="50" viewBox="0 0 50 50" fill="none" xmlns="http://www.w3.org/2000/svg">
<circle cx="25" cy="25" r="25" fill="#36B632"/>
<path d="M18.7828 27.1981C18.0569 27.6797 16.9308 27.3032 16.4331 26.6364C15.9354 25.9696 15.893 25.1289 15.8662 24.3335C15.8367 23.4584 15.8071 22.5833 15.7776 21.7082C15.7503 20.8993 15.7379 20.0385 16.2205 19.3475C16.7032 18.6564 17.8793 18.2739 18.5847 18.7994C19.0876 19.1741 19.1521 19.8202 19.1796 20.3967C19.2571 22.0188 19.3347 23.6409 19.4122 25.263C19.4456 25.9612 19.4204 26.7751 18.7828 27.1981Z" fill="black"/>
<path d="M33.4505 41.7659C33.0091 42.0227 32.4378 42.0088 31.9079 41.9855C26.8683 41.7637 21.8287 41.542 16.7892 41.3203C16.4757 41.3065 16.1559 41.2916 15.8632 41.1926C14.8589 40.8532 14.6852 39.4336 15.5848 38.9169C15.9749 38.6928 16.4594 38.6431 16.9245 38.6059C21.3832 38.2494 25.8731 38.4907 30.3419 38.7325C31.3752 38.7884 32.4831 38.8686 33.285 39.44C34.0869 40.0115 34.312 41.2648 33.4505 41.7659Z" fill="black"/>
<path d="M29.0371 25.1352C29.0405 23.123 29.1797 21.1109 29.4538 19.1129C29.5978 18.0627 31.4391 17.5987 32.2027 18.4201C32.668 18.9206 32.6671 19.6265 32.6437 20.2706C32.5894 21.7645 32.5351 23.2583 32.4808 24.7522C32.4577 25.3892 32.4276 26.0505 32.0924 26.6168C31.7572 27.183 31.0223 27.6232 30.313 27.4711C29.2738 27.2482 29.0356 26.0689 29.0371 25.1352Z" fill="black"/>
</svg>
