<svg width="50" height="50" viewBox="0 0 50 50" fill="none" xmlns="http://www.w3.org/2000/svg">
<circle cx="25" cy="25" r="25" fill="#1F5A1D"/>
<path d="M34.9529 40.5762C33.858 40.7605 33.1789 39.543 32.3913 38.8006C31.8018 38.2449 31.02 37.913 30.231 37.6671C26.0245 36.3563 21.1051 37.3489 17.7964 40.176C17.2793 40.6178 16.6743 41.1387 15.9958 41.0088C15.2791 40.8715 14.9308 40.0157 15.1264 39.3429C15.3221 38.67 15.8934 38.161 16.4673 37.7254C20.6073 34.5836 26.4205 33.4058 31.3941 35.0672C32.8125 35.541 34.1757 36.2487 35.1786 37.3135C35.6448 37.8084 36.0397 38.4111 36.0658 39.0772C36.0919 39.7434 35.6427 40.4602 34.9529 40.5762Z" fill="black"/>
<path d="M16.5894 26.4879C16.4944 25.3704 16.3995 24.2529 16.3045 23.1353C16.2565 22.5696 16.2111 21.9832 16.4144 21.4484C16.6177 20.9136 17.1431 20.4439 17.7379 20.477C18.748 20.5333 19.0746 21.7796 19.126 22.7423C19.1553 23.2921 19.1847 23.8419 19.214 24.3917C19.2444 24.9611 19.2732 25.544 19.0992 26.0905C18.9252 26.637 18.5053 27.1493 17.9237 27.2871C17.3421 27.4248 16.6376 27.0561 16.5894 26.4879Z" fill="black"/>
<path d="M29.3562 19.3408C29.9168 19.1597 30.5432 19.4936 30.8614 19.9664C31.1797 20.4392 31.2623 21.0179 31.3374 21.576C31.4689 22.5541 31.6004 23.5321 31.7319 24.5101C31.802 25.0312 31.8709 25.5691 31.7214 26.0759C31.5719 26.5827 31.1454 27.055 30.5959 27.1056C30.0671 27.1543 29.5725 26.7991 29.317 26.357C29.0615 25.9148 28.9957 25.3982 28.9346 24.896C28.8015 23.8022 28.6684 22.7084 28.5353 21.6147C28.4302 20.7509 28.4899 19.6206 29.3562 19.3408Z" fill="black"/>
</svg>
