<svg width="16" height="12" viewBox="0 0 16 12" fill="none" xmlns="http://www.w3.org/2000/svg">
<path d="M1.95561 11.236C1.81534 10.8689 2.23529 10.5291 2.61977 10.3009C3.62729 9.70287 4.69591 9.17133 5.81136 8.71335C6.25206 8.53241 6.71291 8.36006 7.20632 8.32899C7.74697 8.29494 8.27936 8.43316 8.79089 8.57784C10.6036 9.09056 12.3706 9.70776 14.0737 10.4231C14.5231 10.6119 15.028 10.8825 15.0352 11.2899C15.0425 11.7029 14.4851 12.0033 13.971 12C13.4568 11.9967 12.9871 11.7817 12.5372 11.5818C11.3327 11.0466 10.0829 10.5771 8.79934 10.1776C8.01372 9.93308 7.08835 9.72301 6.36647 10.072C5.5176 10.4824 4.66873 10.8928 3.81986 11.3032C3.51042 11.4528 3.18697 11.6062 2.82722 11.6317C2.46747 11.6573 2.06157 11.5134 1.95561 11.236Z" fill="#E9E7E7"/>
<path d="M11.5365 3.96577C11.2336 3.59802 11.5925 3.12029 11.9382 2.77773C12.7016 2.02119 13.465 1.26465 14.2283 0.50811C14.4289 0.309361 14.6475 0.100508 14.9518 0.0250822C15.3937 -0.0844556 15.9182 0.178583 15.9898 0.545661C16.0588 0.899411 15.7653 1.22609 15.4883 1.50656C14.8374 2.1654 14.1866 2.82424 13.5358 3.48309C13.2815 3.74046 13.0132 4.00693 12.6411 4.14343C12.2691 4.27993 11.7622 4.2398 11.5365 3.96577Z" fill="#E9E7E7"/>
<path d="M0.760456 1.19716C1.09136 1.19798 1.37935 1.36868 1.64078 1.53165C2.39735 2.00329 3.15391 2.47492 3.91048 2.94656C4.17288 3.11014 4.442 3.2798 4.60704 3.51136C4.77208 3.74292 4.80913 4.05446 4.60745 4.26647C4.40381 4.48055 4.01465 4.53221 3.69104 4.46145C3.36743 4.3907 3.0933 4.22162 2.82843 4.05635C2.18286 3.65352 1.53729 3.2507 0.891718 2.84787C0.391366 2.53566 -0.168036 2.07633 0.0475023 1.59772C0.152631 1.36427 0.451443 1.19639 0.760456 1.19716Z" fill="#E9E7E7"/>
</svg>
