<svg width="50" height="50" viewBox="0 0 50 50" fill="none" xmlns="http://www.w3.org/2000/svg">
<path d="M50 25C50 38.8071 38.8071 50 25 50C11.1929 50 0 38.8071 0 25C0 11.1929 11.1929 0 25 0C38.8071 0 50 11.1929 50 25Z" fill="#88D256"/>
<path d="M14.7151 42.584C13.4266 42.1229 12.1747 41.5193 11.1825 40.6329C10.4972 40.0207 9.92227 39.1993 10.0086 38.3236C10.095 37.4479 11.1142 36.6495 11.9967 36.9852C12.7073 37.2554 12.9662 38.0405 13.4451 38.5943C13.9572 39.1866 14.7395 39.5196 15.5119 39.7786C20.6842 41.5134 26.7792 40.6879 31.1902 37.6552C32.9464 36.4478 34.5486 34.6206 34.2373 32.6228C34.1369 31.9781 35.0223 31.5103 35.7062 31.6762C36.3902 31.8422 36.8715 32.3897 37.303 32.9058C37.859 33.5706 38.4149 34.2355 38.9709 34.9003C39.4372 35.458 39.9217 36.0565 39.9936 36.7573C40.0654 37.4581 39.5288 38.2594 38.7647 38.2444C37.7467 38.2243 36.6677 36.9187 36.0075 37.6326C30.9448 43.1067 21.9927 45.1885 14.7151 42.584Z" fill="black"/>
<path d="M17.499 19.8625C17.7415 21.8162 17.8712 23.7818 17.8875 25.7481C17.8902 26.0731 17.8883 26.4062 17.7655 26.7108C17.3817 27.6631 15.7046 27.8303 15.1083 26.9758C14.8283 26.5745 14.7936 26.0735 14.7672 25.5971C14.6675 23.8001 14.5678 22.0031 14.4682 20.2061C14.439 19.6812 14.4123 19.1402 14.6045 18.6454C14.7967 18.1506 15.2651 17.7081 15.8352 17.6851C16.9004 17.642 17.3779 18.8869 17.499 19.8625Z" fill="black"/>
<path d="M29.9967 27.1694C29.3387 27.2877 28.6814 26.8549 28.3725 26.3068C28.0636 25.7588 28.0236 25.1203 27.9897 24.5036C27.912 23.0869 27.8342 21.6701 27.7564 20.2534C27.7214 19.616 27.6884 18.9633 27.8914 18.3532C28.0945 17.743 28.5846 17.1736 29.2594 17.0283C29.9342 16.8831 30.7456 17.3117 30.7875 17.9487C30.933 20.1558 31.0785 22.3628 31.2239 24.5698C31.2922 25.6051 31.1021 26.9708 29.9967 27.1694Z" fill="black"/>
</svg>
